<svg xmlns="http://www.w3.org/2000/svg" xmlns:xlink="http://www.w3.org/1999/xlink" width="208.973" height="50.349"
    viewBox="0 0 208.973 50.349">
    <defs>
        <clipPath id="a">
            <rect width="208.973" height="50.349" fill="none"></rect>
        </clipPath>
    </defs>
    <g transform="translate(0 0)">
        <path d="M146.655,28.474h-7.517V24.042h20.175v4.432H151.8V48.365h-5.141Z" transform="translate(-63.829 -11.029)"
            fill="#fff"></path>
        <path d="M185.715,24.042h19.111V28.4h-13.97v5.354h12.41v4.361h-12.41V44h14.183v4.361H185.715Z"
            transform="translate(-85.197 -11.029)" fill="#fff"></path>
        <g transform="translate(0 0)">
            <g clip-path="url(#a)">
                <path
                    d="M230.72,24.042h5l9.36,13.225q.425.6,1.418,2.376l.178-.107-.107-2.056V24.042h5V48.365h-5l-9.4-13.332a19.671,19.671,0,0,1-1.383-2.34l-.178.106q.106,1.526.107,2.128V48.365h-5Z"
                    transform="translate(-105.843 -11.029)" fill="#fff"></path>
                <path
                    d="M277.611,35.843q0-6.311,3.085-9.449t8.687-3.138a14.078,14.078,0,0,1,5.549,1.046,8.639,8.639,0,0,1,3.9,3.191,9.185,9.185,0,0,1,1.436,5.23h-5.283a4.767,4.767,0,0,0-1.525-3.741,5.728,5.728,0,0,0-3.971-1.365,6.051,6.051,0,0,0-4.964,1.985,8.787,8.787,0,0,0-1.631,5.709v1.064q0,7.694,6.6,7.694a6.054,6.054,0,0,0,4.13-1.347A4.684,4.684,0,0,0,295.162,39h5.106a9.17,9.17,0,0,1-1.418,5.23,8.624,8.624,0,0,1-3.865,3.155,14.145,14.145,0,0,1-5.6,1.046q-11.772,0-11.772-12.587"
                    transform="translate(-127.354 -10.669)" fill="#fff"></path>
                <path d="M328.774,24.042h5.141v9.644h10.566V24.042h5.141V48.366h-5.141V38.119H333.914V48.366h-5.141Z"
                    transform="translate(-150.825 -11.03)" fill="#fff"></path>
                <rect width="5.141" height="24.323" transform="translate(203.832 13.013)" fill="#fff"></rect>
                <path
                    d="M58.577,5.611,48.685,22.378H13.144L2.931,5.636a1.975,1.975,0,0,1,1.686-3h52.26a1.974,1.974,0,0,1,1.7,2.978"
                    transform="translate(-1.211 -1.208)" fill="#4071ef"></path>
                <path d="M57.589,39.113,41.781,65.9a1.974,1.974,0,0,1-3.386.024L22.048,39.113Z"
                    transform="translate(-10.115 -17.943)" fill="#253652"></path>
                <rect width="22.213" height="4.936" transform="translate(18.401 9.571)" fill="#fff"></rect>
                <path d="M49.958,26.8h4.936V49.017l-4.936-8.392Z" transform="translate(-22.918 -12.296)" fill="#fff">
                </path>
                <path
                    d="M55.666,1.425a1.974,1.974,0,0,1,1.7,2.977L47.474,21.17,31.668,47.953a1.974,1.974,0,0,1-3.386.024L11.933,21.17,1.72,4.427a1.974,1.974,0,0,1,1.686-3Zm0-1.425H3.406A3.36,3.36,0,0,0,.442,1.735,3.36,3.36,0,0,0,.5,5.17L10.717,21.912,27.065,48.72a3.4,3.4,0,0,0,5.83-.042L48.7,21.894,58.594,5.127a3.362,3.362,0,0,0,.024-3.413A3.363,3.363,0,0,0,55.666,0"
                    transform="translate(0 0)" fill="#fff"></path>
            </g>
        </g>
    </g>
</svg>