<svg width="20" height="20" viewBox="0 0 20 20" fill="none" xmlns="http://www.w3.org/2000/svg">
    <circle cx="10" cy="10" r="9.5" stroke="#77AB41" />
    <circle cx="10" cy="10" r="7.5" stroke="#77AB41" />
    <path d="M2.5 10H4.5" stroke="#77AB41" stroke-linecap="round" />
    <path d="M15.5 10H17.5" stroke="#77AB41" stroke-linecap="round" />
    <path d="M10 2.5V4.5" stroke="#77AB41" stroke-linecap="round" />
    <path d="M10 15.5V17.5" stroke="#77AB41" stroke-linecap="round" />
    <path
        d="M6.54333 6.60832L8.49204 11.4801C8.49712 11.4928 8.50719 11.5029 8.5199 11.508L13.3917 13.4567C13.4325 13.473 13.473 13.4325 13.4567 13.3917L11.508 8.5199C11.5029 8.50719 11.4928 8.49712 11.4801 8.49204L6.60832 6.54333C6.56751 6.527 6.527 6.56751 6.54333 6.60832Z"
        stroke="#77AB41" stroke-linecap="round" />
    <path
        d="M11.3536 9.35355C11.5488 9.15829 11.5488 8.84171 11.3536 8.64645C11.1583 8.45118 10.8417 8.45118 10.6464 8.64645L11.3536 9.35355ZM8.64645 10.6464C8.45118 10.8417 8.45118 11.1583 8.64645 11.3536C8.84171 11.5488 9.15829 11.5488 9.35355 11.3536L8.64645 10.6464ZM10.6464 8.64645L8.64645 10.6464L9.35355 11.3536L11.3536 9.35355L10.6464 8.64645Z"
        fill="#77AB41" />
</svg>