<svg width="27" height="27" viewBox="0 0 27 27" fill="none" xmlns="http://www.w3.org/2000/svg">
<path d="M14.818 3.375H10.125C8.00368 3.375 6.94302 3.375 6.28401 4.03401C5.625 4.69302 5.625 5.75368 5.625 7.875V19.125C5.625 21.2463 5.625 22.307 6.28401 22.966C6.94302 23.625 8.00368 23.625 10.125 23.625H16.875C18.9963 23.625 20.057 23.625 20.716 22.966C21.375 22.307 21.375 21.2463 21.375 19.125V9.93198C21.375 9.47214 21.375 9.24221 21.2894 9.03547C21.2037 8.82873 21.0411 8.66615 20.716 8.34099L16.409 4.03401C16.0838 3.70885 15.9213 3.54627 15.7145 3.46064C15.5078 3.375 15.2779 3.375 14.818 3.375Z" stroke="#77AB41" stroke-width="2"/>
<path d="M15.5872 15.841L12.0068 14.3065C11.116 13.9247 10.125 14.5781 10.125 15.5473V18.2027C10.125 19.1719 11.116 19.8253 12.0068 19.4435L15.5872 17.909C16.4964 17.5194 16.4964 16.2306 15.5872 15.841Z" stroke="#77AB41" stroke-width="2" stroke-linecap="round" stroke-linejoin="round"/>
<path d="M14.625 3.375V7.875C14.625 8.93566 14.625 9.46599 14.9545 9.7955C15.284 10.125 15.8143 10.125 16.875 10.125H21.375" stroke="#77AB41" stroke-width="2"/>
</svg>
