<svg width="150" height="134" viewBox="0 0 150 134" fill="none" xmlns="http://www.w3.org/2000/svg">
    <mask id="mask0_93_262" style="mask-type:alpha" maskUnits="userSpaceOnUse" x="0" y="0" width="150" height="134">
        <ellipse cx="76.025" cy="66.9601" rx="67.1294" ry="66.9601" fill="#FFC240" fill-opacity="0.3" />
        <path
            d="M130.204 66.9602C130.204 96.7917 105.957 120.992 76.025 120.992C46.0933 120.992 21.8462 96.7917 21.8462 66.9602C21.8462 37.1286 46.0933 12.9281 76.025 12.9281C105.957 12.9281 130.204 37.1286 130.204 66.9602Z"
            fill="#F7931B" stroke="#332D57" stroke-width="8" />
        <mask id="mask1_93_262" style="mask-type:alpha" maskUnits="userSpaceOnUse" x="23" y="14" width="106"
            height="106">
            <ellipse cx="76.0251" cy="66.96" rx="52.2118" ry="52.0801" fill="#FFC240" />
        </mask>
        <g mask="url(#mask1_93_262)">
            <ellipse cx="64.091" cy="66.9601" rx="52.2118" ry="52.0801" fill="#FFC240" />
        </g>
        <path fill-rule="evenodd" clip-rule="evenodd"
            d="M58.1236 30.7286C58.1236 27.7284 55.0688 25.7202 52.486 27.2467C43.7202 32.4273 36.8173 40.4134 33.0203 49.965C32.0199 52.4816 33.9925 55.0561 36.7006 55.0561V55.0561C38.4798 55.0561 40.0373 53.9047 40.7254 52.2641C43.8198 44.8858 49.174 38.6809 55.9287 34.5135C57.2528 33.6966 58.1236 32.2845 58.1236 30.7286V30.7286ZM76.0251 113.088L75.9245 113.088H76.1257L76.0251 113.088Z"
            fill="white" />
        <ellipse cx="32.0184" cy="61.7524" rx="2.98397" ry="2.97644" fill="white" />
        <path fill-rule="evenodd" clip-rule="evenodd"
            d="M128.159 64.1069C128.146 63.8774 128.244 63.6556 128.423 63.5113C133.821 59.1626 137.485 54.9373 139.527 51.2058C141.542 47.5235 141.758 44.7822 141.218 42.7714C140.677 40.7607 139.116 38.4943 135.526 36.3103C131.887 34.0971 126.596 32.2652 119.741 31.1911C117.816 30.8895 115.799 30.6524 113.697 30.4822C113.413 30.4592 113.146 30.3354 112.944 30.134C110.299 27.495 111.962 22.2759 115.682 22.6294C133.506 24.3232 146.233 30.6055 148.946 40.7058C153.819 58.8454 124.545 82.4304 83.5612 93.3843C52.473 101.693 23.5769 100.348 9.30834 91.2965C6.92467 89.7844 7.34201 86.455 9.78819 85.0463L10.485 84.645C11.5594 84.0262 12.8916 84.1246 13.9509 84.7689V84.7689C17.5898 86.9821 22.8807 88.814 29.7351 89.8881C43.4211 92.0327 61.8128 90.9163 81.4858 85.6582C98.0692 81.2259 112.389 74.6991 122.933 67.5574C123.503 67.1714 124.173 66.9601 124.861 66.9601H126.118C127.288 66.9601 128.241 66.0111 128.194 64.8418C128.184 64.5966 128.172 64.3516 128.159 64.1069ZM7.88605 79.2689C8.21744 79.0781 8.35801 78.6771 8.2588 78.3078V78.3078C7.71865 76.297 7.93448 73.5557 9.94955 69.8734C11.9916 66.1419 15.6554 61.9166 21.053 57.5679C22.0884 56.7337 23.1764 55.904 24.3148 55.0809C24.9931 54.5905 25.4802 53.8786 25.7039 53.0721C26.6389 49.7018 22.8471 46.2892 20.0025 48.3241C5.59161 58.633 -2.16604 70.3368 0.53009 80.3734V80.3734C0.915351 81.8076 2.58201 82.3235 3.8689 81.5824L7.88605 79.2689Z"
            fill="#332D57" />
        <path fill-rule="evenodd" clip-rule="evenodd"
            d="M124.901 89.0518C123.78 89.3225 122.829 90.0713 122.294 91.0923C120.777 93.9852 123.027 97.6977 126.209 96.9589C134.997 94.9182 141.804 91.4475 145.728 86.6883C147.756 84.2286 145.561 81.096 142.373 81.096V81.096C140.85 81.096 139.451 81.867 138.324 82.8913C137.568 83.5784 136.646 84.2678 135.525 84.9492C132.859 86.5708 129.306 87.9877 124.901 89.0518ZM145.765 77.376C143.448 77.376 141.603 75.3048 140.878 73.1039C140.569 72.1672 140.128 71.1523 139.527 70.0537C137.485 66.3222 133.821 62.0969 128.423 57.7481C117.646 49.0651 101.159 40.8593 81.4856 35.6012C61.8126 30.3432 43.421 29.2268 29.735 31.3714C22.8806 32.4455 17.5897 34.2774 13.9508 36.4906C10.3599 38.6746 8.79883 40.9409 8.25868 42.9517C7.71853 44.9625 7.93436 47.7038 9.94943 51.3861C11.9914 55.1176 15.6552 59.3429 21.0529 63.6916C21.4597 64.0193 21.8745 64.3463 22.2974 64.6725C23.2465 65.4047 23.8011 66.5382 23.8191 67.7368C23.867 70.9346 20.2943 73.2135 17.7521 71.2731C4.79309 61.3818 -2.02224 50.387 0.529968 40.886C5.40276 22.7464 42.577 16.9212 83.5611 27.8752C119.545 37.4927 146.502 56.8471 149.246 73.704C149.578 75.7452 147.833 77.376 145.765 77.376V77.376Z"
            fill="#332D57" />
        <ellipse cx="63.3447" cy="92.856" rx="10.4424" ry="10.416" fill="#A8E5FE" />
        <path fill-rule="evenodd" clip-rule="evenodd"
            d="M55.8861 85.214C55.8861 82.2428 52.7243 80.5149 50.9123 82.8696C48.8858 85.5028 47.6813 88.7984 47.6813 92.3746C47.6813 101.003 54.6941 107.999 63.3448 107.999C71.9955 107.999 79.0083 101.003 79.0083 92.3746C79.0083 85.8498 74.9987 80.2593 69.3032 77.9207C67.0126 76.9802 64.8367 78.9604 64.8367 81.4366V81.4366C64.8367 83.4455 66.3635 85.0834 67.9676 86.2928C69.8181 87.688 71.0083 89.8989 71.0083 92.3746C71.0083 96.5662 67.5963 99.9986 63.3448 99.9986C59.0933 99.9986 55.6813 96.5662 55.6813 92.3746C55.6813 91.331 55.8928 90.3345 56.276 89.4264C56.3335 89.2901 56.2356 89.1359 56.0877 89.1359V89.1359C55.9764 89.1359 55.8861 89.0457 55.8861 88.9343V85.214Z"
            fill="#332D57" />
        <ellipse cx="20.8293" cy="9.67212" rx="5.22118" ry="5.20801" fill="#F7931B" />
        <ellipse cx="32.0181" cy="4.46432" rx="2.23797" ry="2.23233" fill="#FECD64" />
        <ellipse cx="123.762" cy="124.993" rx="3.72996" ry="3.72055" fill="#F7931B" />
        <ellipse cx="132.712" cy="115.32" rx="4.47529" ry="4.464" fill="#FECD64" />
        <ellipse cx="121.524" cy="113.088" rx="2.23797" ry="2.23233" fill="#FECD64" />
    </mask>
    <g mask="url(#mask0_93_262)">
        <rect x="-18" y="-24" width="193" height="182" fill="#77AB41" />
    </g>
</svg>