<svg width="150" height="150" viewBox="0 0 150 150" fill="none" xmlns="http://www.w3.org/2000/svg">
<circle cx="75" cy="75" r="68.1818" fill="white" fill-opacity="0.3"/>
<mask id="path-2-inside-1_75_355" fill="white">
<path d="M88.5152 6.62707C88.8398 4.98466 87.7718 3.38337 86.1173 3.12739C69.1258 0.498508 51.7465 3.97708 37.0759 12.9434C35.6473 13.8164 35.2779 15.7054 36.2097 17.0964V17.0964C37.1415 18.4873 39.0213 18.8529 40.4531 17.9853C53.7832 9.90748 69.5285 6.75595 84.9408 9.08076C86.5963 9.33048 88.1905 8.26948 88.5152 6.62707V6.62707Z"/>
</mask>
<path d="M88.5152 6.62707C88.8398 4.98466 87.7718 3.38337 86.1173 3.12739C69.1258 0.498508 51.7465 3.97708 37.0759 12.9434C35.6473 13.8164 35.2779 15.7054 36.2097 17.0964V17.0964C37.1415 18.4873 39.0213 18.8529 40.4531 17.9853C53.7832 9.90748 69.5285 6.75595 84.9408 9.08076C86.5963 9.33048 88.1905 8.26948 88.5152 6.62707V6.62707Z" stroke="#332D57" stroke-width="16" mask="url(#path-2-inside-1_75_355)"/>
<mask id="path-3-inside-2_75_355" fill="white">
<path d="M6.42596 53.472C4.77872 52.9548 3.01745 53.8696 2.5694 55.537C-0.27291 66.1143 -0.767259 77.1991 1.13712 88.0106C3.0415 98.822 7.29365 109.071 13.5791 118.04C14.5699 119.454 16.5377 119.712 17.9091 118.663V118.663C19.2805 117.614 19.5356 115.656 18.5502 114.239C12.8706 106.068 9.02508 96.7504 7.29455 86.926C5.56403 77.1016 5.99439 67.0309 8.5403 57.4112C8.98202 55.7422 8.07319 53.9891 6.42596 53.472V53.472Z"/>
</mask>
<path d="M6.42596 53.472C4.77872 52.9548 3.01745 53.8696 2.5694 55.537C-0.27291 66.1143 -0.767259 77.1991 1.13712 88.0106C3.0415 98.822 7.29365 109.071 13.5791 118.04C14.5699 119.454 16.5377 119.712 17.9091 118.663V118.663C19.2805 117.614 19.5356 115.656 18.5502 114.239C12.8706 106.068 9.02508 96.7504 7.29455 86.926C5.56403 77.1016 5.99439 67.0309 8.5403 57.4112C8.98202 55.7422 8.07319 53.9891 6.42596 53.472V53.472Z" stroke="#332D57" stroke-width="16" mask="url(#path-3-inside-2_75_355)"/>
<mask id="path-4-inside-3_75_355" fill="white">
<path d="M106.589 12.8737C107.347 11.3813 106.755 9.55026 105.232 8.8543C103.086 7.87307 100.892 6.99693 98.6602 6.229C97.0771 5.68434 95.3863 6.60347 94.9081 8.20791V8.20791C94.4299 9.81234 95.3456 11.494 96.9266 12.0446C98.8107 12.7008 100.664 13.4413 102.482 14.2638C104.007 14.954 105.83 14.366 106.589 12.8737V12.8737Z"/>
</mask>
<path d="M106.589 12.8737C107.347 11.3813 106.755 9.55026 105.232 8.8543C103.086 7.87307 100.892 6.99693 98.6602 6.229C97.0771 5.68434 95.3863 6.60347 94.9081 8.20791V8.20791C94.4299 9.81234 95.3456 11.494 96.9266 12.0446C98.8107 12.7008 100.664 13.4413 102.482 14.2638C104.007 14.954 105.83 14.366 106.589 12.8737V12.8737Z" stroke="#332D57" stroke-width="16" mask="url(#path-4-inside-3_75_355)"/>
<circle cx="75" cy="75" r="56.0606" fill="#1A8CD0"/>
<circle cx="27.2727" cy="37.1212" r="11.9091" fill="#FAAF78" stroke="#332D57" stroke-width="8"/>
<path fill-rule="evenodd" clip-rule="evenodd" d="M126.091 75C126.091 103.217 103.217 126.091 75 126.091C46.7832 126.091 23.9091 103.217 23.9091 75C23.9091 46.7833 46.7832 23.9091 75 23.9091C85.1391 23.9091 94.5883 26.8625 102.534 31.9561C104.141 32.9859 106.249 32.9079 107.682 31.6472V31.6472C109.591 29.9672 109.506 26.9575 107.379 25.5622C98.0799 19.459 86.9545 15.9091 75 15.9091C42.365 15.9091 15.9091 42.365 15.9091 75C15.9091 107.635 42.365 134.091 75 134.091C107.635 134.091 134.091 107.635 134.091 75C134.091 67.6716 132.757 60.6547 130.318 54.179C129.365 51.6476 126.187 51.0056 124.157 52.7926V52.7926C122.825 53.9642 122.416 55.8545 123.023 57.521C125.008 62.974 126.091 68.8605 126.091 75Z" fill="#332D57"/>
<mask id="mask0_75_355" style="mask-type:alpha" maskUnits="userSpaceOnUse" x="21" y="21" width="108" height="108">
<circle cx="75" cy="75" r="53.0303" fill="#53B4EF"/>
</mask>
<g mask="url(#mask0_75_355)">
<circle cx="62.8788" cy="75" r="53.0303" fill="#53B4EF"/>
</g>
<path fill-rule="evenodd" clip-rule="evenodd" d="M57.0967 37.9943C57.0967 34.9944 54.041 32.9872 51.4568 34.5109C42.4829 39.8021 35.4219 47.9917 31.5612 57.7922C30.5699 60.3086 32.5407 62.8789 35.2454 62.8789V62.8789C37.0263 62.8789 38.5851 61.7246 39.2674 60.0796C42.4296 52.4562 47.942 46.0538 54.9007 41.7765C56.226 40.9619 57.0967 39.5499 57.0967 37.9943V37.9943Z" fill="white"/>
<mask id="path-11-inside-4_75_355" fill="white">
<path d="M34.9757 85.8284C33.344 86.203 32.3132 87.8344 32.817 89.4309C34.5063 94.7834 37.3645 99.6944 41.184 103.807C42.3233 105.034 44.251 104.943 45.3827 103.71V103.71C46.5144 102.476 46.4193 100.567 45.2989 99.3235C42.3627 96.0636 40.1321 92.2309 38.748 88.0677C38.2198 86.4791 36.6073 85.4537 34.9757 85.8284V85.8284Z"/>
</mask>
<path d="M34.9757 85.8284C33.344 86.203 32.3132 87.8344 32.817 89.4309C34.5063 94.7834 37.3645 99.6944 41.184 103.807C42.3233 105.034 44.251 104.943 45.3827 103.71V103.71C46.5144 102.476 46.4193 100.567 45.2989 99.3235C42.3627 96.0636 40.1321 92.2309 38.748 88.0677C38.2198 86.4791 36.6073 85.4537 34.9757 85.8284V85.8284Z" stroke="#332D57" stroke-width="16" mask="url(#path-11-inside-4_75_355)"/>
<mask id="path-12-inside-5_75_355" fill="white">
<path d="M90.55 75.3985C91.7338 76.5823 93.6635 76.5896 94.7489 75.315C97.774 71.7624 100.117 67.681 101.659 63.2772C102.212 61.6972 101.233 60.0345 99.6136 59.6092V59.6092C97.9944 59.184 96.3507 60.1587 95.7734 61.7301C94.5342 65.1029 92.7323 68.2418 90.4448 71.0128C89.379 72.3038 89.3662 74.2147 90.55 75.3985V75.3985Z"/>
</mask>
<path d="M90.55 75.3985C91.7338 76.5823 93.6635 76.5896 94.7489 75.315C97.774 71.7624 100.117 67.681 101.659 63.2772C102.212 61.6972 101.233 60.0345 99.6136 59.6092V59.6092C97.9944 59.184 96.3507 60.1587 95.7734 61.7301C94.5342 65.1029 92.7323 68.2418 90.4448 71.0128C89.379 72.3038 89.3662 74.2147 90.55 75.3985V75.3985Z" stroke="#332D57" stroke-width="16" mask="url(#path-12-inside-5_75_355)"/>
<circle cx="30.5816" cy="69.697" r="3.0303" fill="white"/>
<circle cx="34.0908" cy="81.0606" r="2.27273" fill="#332D57"/>
<circle cx="86.3635" cy="78.0303" r="2.27273" fill="#332D57"/>
<circle cx="48.4848" cy="77.2727" r="3.78788" fill="#332D57"/>
<circle cx="123.763" cy="134.091" r="3.78788" fill="#FAAF78"/>
<circle cx="138.636" cy="121.97" r="4.54545" fill="#332D57"/>
<circle cx="114.394" cy="34.8485" r="7.36364" fill="#B8DEFF" stroke="#332D57" stroke-width="8"/>
<circle cx="48.4848" cy="125" r="5.09091" fill="#B8DEFF" stroke="#332D57" stroke-width="8"/>
</svg>
