<svg width="150" height="134" viewBox="0 0 150 134" fill="none" xmlns="http://www.w3.org/2000/svg">
    <ellipse cx="76.025" cy="67" rx="67.1294" ry="66.9601" fill="#FFC240" fill-opacity="0.3" />
    <path
        d="M130.204 67.0001C130.204 96.8316 105.957 121.032 76.025 121.032C46.0933 121.032 21.8461 96.8316 21.8461 67.0001C21.8461 37.1685 46.0933 12.968 76.025 12.968C105.957 12.968 130.204 37.1685 130.204 67.0001Z"
        fill="#F7931B" stroke="#332D57" stroke-width="8" />
    <mask id="mask0_75_479" style="mask-type:alpha" maskUnits="userSpaceOnUse" x="23" y="14" width="106" height="106">
        <ellipse cx="76.0251" cy="66.9999" rx="52.2118" ry="52.0801" fill="#FFC240" />
    </mask>
    <g mask="url(#mask0_75_479)">
        <ellipse cx="64.0911" cy="67" rx="52.2118" ry="52.0801" fill="#FFC240" />
    </g>
    <path fill-rule="evenodd" clip-rule="evenodd"
        d="M58.1236 30.7686C58.1236 27.7684 55.0688 25.7602 52.486 27.2866C43.7202 32.4673 36.8173 40.4533 33.0203 50.005C32.0199 52.5215 33.9925 55.0961 36.7006 55.0961V55.0961C38.4798 55.0961 40.0373 53.9447 40.7254 52.304C43.8198 44.9257 49.174 38.7208 55.9287 34.5534C57.2528 33.7365 58.1236 32.3244 58.1236 30.7686V30.7686ZM76.0251 113.128L75.9245 113.128H76.1257L76.0251 113.128Z"
        fill="white" />
    <ellipse cx="32.0184" cy="61.7924" rx="2.98397" ry="2.97644" fill="white" />
    <path fill-rule="evenodd" clip-rule="evenodd"
        d="M128.159 64.1468C128.146 63.9173 128.244 63.6955 128.423 63.5513C133.821 59.2025 137.485 54.9772 139.527 51.2457C141.542 47.5634 141.758 44.8221 141.218 42.8113C140.677 40.8006 139.116 38.5342 135.525 36.3502C131.887 34.1371 126.596 32.3051 119.741 31.231C117.816 30.9294 115.799 30.6923 113.697 30.5221C113.413 30.4991 113.146 30.3753 112.944 30.1739C110.299 27.5349 111.962 22.3158 115.682 22.6693C133.505 24.3631 146.233 30.6455 148.946 40.7457C153.819 58.8853 124.545 82.4703 83.5611 93.4242C52.473 101.733 23.5769 100.388 9.30829 91.3365C6.92462 89.8244 7.34196 86.4949 9.78814 85.0862L10.4849 84.6849C11.5593 84.0661 12.8915 84.1645 13.9508 84.8088V84.8088C17.5897 87.022 22.8807 88.8539 29.7351 89.928C43.4211 92.0726 61.8127 90.9562 81.4857 85.6981C98.0691 81.2658 112.389 74.739 122.933 67.5973C123.503 67.2113 124.173 67 124.861 67H126.118C127.288 67 128.241 66.051 128.194 64.8817C128.184 64.6365 128.172 64.3916 128.159 64.1468ZM7.88599 79.3088C8.21738 79.118 8.35795 78.717 8.25874 78.3477V78.3477C7.71859 76.3369 7.93442 73.5956 9.94949 69.9133C11.9915 66.1818 15.6553 61.9565 21.053 57.6078C22.0883 56.7737 23.1763 55.9439 24.3148 55.1208C24.9931 54.6304 25.4801 53.9185 25.7039 53.112C26.6388 49.7417 22.8471 46.3292 20.0024 48.3641C5.59155 58.6729 -2.1661 70.3767 0.530029 80.4134V80.4134C0.915292 81.8475 2.58196 82.3634 3.86885 81.6223L7.88599 79.3088Z"
        fill="#332D57" />
    <path fill-rule="evenodd" clip-rule="evenodd"
        d="M124.901 89.0917C123.78 89.3624 122.829 90.1112 122.294 91.1322C120.777 94.0251 123.027 97.7376 126.209 96.9988C134.997 94.9581 141.804 91.4874 145.728 86.7282C147.756 84.2685 145.561 81.136 142.373 81.136V81.136C140.85 81.136 139.451 81.9069 138.324 82.9312C137.568 83.6183 136.646 84.3077 135.525 84.9891C132.859 86.6107 129.306 88.0276 124.901 89.0917ZM145.765 77.4159C143.448 77.4159 141.603 75.3447 140.878 73.1438C140.569 72.2071 140.128 71.1922 139.527 70.0936C137.485 66.3621 133.821 62.1368 128.423 57.788C117.646 49.105 101.159 40.8992 81.4856 35.6412C61.8126 30.3831 43.421 29.2667 29.735 31.4113C22.8806 32.4854 17.5897 34.3173 13.9508 36.5305C10.3599 38.7145 8.79883 40.9809 8.25868 42.9916C7.71853 45.0024 7.93436 47.7437 9.94943 51.426C11.9914 55.1575 15.6552 59.3828 21.0529 63.7315C21.4597 64.0592 21.8745 64.3862 22.2974 64.7124C23.2465 65.4446 23.8011 66.5781 23.8191 67.7767C23.867 70.9745 20.2943 73.2534 17.7521 71.313C4.79309 61.4217 -2.02224 50.4269 0.529968 40.926C5.40276 22.7863 42.577 16.9611 83.5611 27.9151C119.545 37.5326 146.502 56.887 149.246 73.7439C149.578 75.7851 147.833 77.4159 145.765 77.4159V77.4159Z"
        fill="#332D57" />
    <ellipse cx="63.3447" cy="92.8959" rx="10.4424" ry="10.416" fill="#A8E5FE" />
    <path fill-rule="evenodd" clip-rule="evenodd"
        d="M55.8861 85.2539C55.8861 82.2827 52.7243 80.5548 50.9123 82.9095C48.8858 85.5428 47.6813 88.8383 47.6813 92.4145C47.6813 101.043 54.6941 108.039 63.3448 108.039C71.9955 108.039 79.0083 101.043 79.0083 92.4145C79.0083 85.8898 74.9987 80.2992 69.3032 77.9606C67.0126 77.0201 64.8367 79.0004 64.8367 81.4765V81.4765C64.8367 83.4854 66.3635 85.1233 67.9676 86.3327C69.8181 87.728 71.0083 89.9388 71.0083 92.4145C71.0083 96.6061 67.5963 100.039 63.3448 100.039C59.0933 100.039 55.6813 96.6061 55.6813 92.4145C55.6813 91.371 55.8928 90.3745 56.276 89.4663C56.3335 89.3301 56.2356 89.1759 56.0877 89.1759V89.1759C55.9764 89.1759 55.8861 89.0856 55.8861 88.9743V85.2539Z"
        fill="#332D57" />
    <ellipse cx="20.8294" cy="9.71203" rx="5.22118" ry="5.20801" fill="#F7931B" />
    <ellipse cx="32.0181" cy="4.5043" rx="2.23797" ry="2.23233" fill="#FECD64" />
    <ellipse cx="123.762" cy="125.033" rx="3.72996" ry="3.72055" fill="#F7931B" />
    <ellipse cx="132.712" cy="115.36" rx="4.47529" ry="4.464" fill="#FECD64" />
    <ellipse cx="121.524" cy="113.128" rx="2.23797" ry="2.23233" fill="#FECD64" />
</svg>