<svg width="149" height="134" viewBox="0 0 149 134" fill="none" xmlns="http://www.w3.org/2000/svg">
<circle cx="74.2925" cy="68.0937" r="65.6207" fill="white" fill-opacity="0.3"/>
<circle cx="74.2924" cy="68.0937" r="52.8713" fill="#89BFF2" stroke="#332D57" stroke-width="8"/>
<mask id="mask0_75_1916" style="mask-type:alpha" maskUnits="userSpaceOnUse" x="23" y="17" width="103" height="103">
<circle cx="74.2925" cy="68.0937" r="51.0384" fill="#D2E1FB"/>
</mask>
<g mask="url(#mask0_75_1916)">
<circle cx="62.6266" cy="68.0937" r="51.0384" fill="#D2E1FB"/>
</g>
<mask id="mask1_75_1916" style="mask-type:alpha" maskUnits="userSpaceOnUse" x="23" y="17" width="103" height="103">
<circle cx="74.2925" cy="68.0937" r="51.0384" fill="#89BFF2"/>
</mask>
<g mask="url(#mask1_75_1916)">
<circle cx="88.8748" cy="22.1592" r="5.74943" transform="rotate(-90 88.8748 22.1592)" fill="#C5E0EF" stroke="#332D57" stroke-width="6"/>
<circle cx="79.3964" cy="116.945" r="6.47855" transform="rotate(-90 79.3964 116.945)" stroke="#332D57" stroke-width="6"/>
</g>
<path fill-rule="evenodd" clip-rule="evenodd" d="M74.5015 113.299L74.5608 113.299L74.6202 113.299H74.5015ZM57.0618 32.7299C57.0618 29.723 53.9989 27.7123 51.4174 29.2539C42.9425 34.3148 36.2631 42.0706 32.5624 51.3383C31.558 53.8536 33.5315 56.4279 36.2399 56.4279V56.4279C38.0191 56.4279 39.5766 55.2765 40.2685 53.6372C43.2663 46.5348 48.4062 40.5575 54.8787 36.5149C56.1956 35.6924 57.0618 34.2825 57.0618 32.7299V32.7299Z" fill="white"/>
<circle cx="31.5425" cy="62.9898" r="2.91648" fill="white"/>
<path fill-rule="evenodd" clip-rule="evenodd" d="M22.618 60.449C23.4727 59.8814 24.0604 58.9987 24.2634 57.993C24.9299 54.6915 21.4209 51.667 18.6039 53.5131C5.76114 61.9294 -1.40255 71.8144 0.229732 81.0716C3.42554 99.1959 39.1285 108.05 79.9746 100.848C120.821 93.6454 151.342 73.1142 148.146 54.9899C147.517 51.4217 145.628 48.2128 142.688 45.415C141.023 43.8306 138.388 44.3861 137.162 46.3301L135.27 49.3289C135.196 49.446 135.226 49.6002 135.338 49.6823V49.6823C138.623 52.102 139.922 54.4159 140.268 56.379C140.614 58.3422 140.185 60.9607 137.926 64.3581C135.635 67.8027 131.725 71.5999 126.111 75.3766C114.901 82.9175 98.1715 89.5157 78.5854 92.9692C58.9993 96.4228 41.0222 95.9443 27.9089 92.6923C21.3414 91.0636 16.3692 88.8324 13.0383 86.3791C9.75298 83.9594 8.45435 81.6455 8.10819 79.6824C7.76204 77.7192 8.19095 75.1007 10.4506 71.7033C12.7416 68.2587 16.6507 64.4615 22.2651 60.6848C22.3822 60.6061 22.4998 60.5275 22.618 60.449ZM131.962 43.6402C130.879 45.3573 128.695 45.9916 126.79 45.2899C124.88 44.5864 122.772 43.9406 120.467 43.3691L120.279 43.3228C119.284 43.0788 118.428 42.441 117.895 41.5655C116.143 38.6862 118.421 34.6538 121.7 35.4358C124.759 36.1654 127.613 37.035 130.231 38.0367C132.479 38.897 133.246 41.604 131.962 43.6402V43.6402Z" fill="#332D57"/>
<mask id="mask2_75_1916" style="mask-type:alpha" maskUnits="userSpaceOnUse" x="17" y="11" width="115" height="114">
<circle cx="74.2924" cy="68.0937" r="52.8713" fill="#89BFF2" stroke="#332D57" stroke-width="8"/>
</mask>
<g mask="url(#mask2_75_1916)">
<path fill-rule="evenodd" clip-rule="evenodd" d="M82.397 75.5659C81.6279 78.4363 84.1096 81.1222 87.0119 80.4837C115.325 74.255 137.651 61.6698 145.416 48.4958C147.214 45.4462 144.212 42.501 140.792 43.4172L140.425 43.5155C139.387 43.7936 138.521 44.4924 137.926 45.3873V45.3873C135.635 48.8319 131.726 52.6291 126.111 56.4058C116.243 63.0437 102.099 68.9511 85.4941 72.6263C83.9964 72.9578 82.794 74.0842 82.397 75.5659V75.5659ZM17.4945 77.7742C17.6638 77.1424 17.0744 76.5673 16.4426 76.7365V76.7365C15.6666 76.9445 15.5567 77.9928 16.2959 78.3074C16.3171 78.3164 16.3383 78.3255 16.3596 78.3345C16.8291 78.5335 17.3625 78.2668 17.4945 77.7742V77.7742Z" fill="#332D57"/>
<path fill-rule="evenodd" clip-rule="evenodd" d="M98.7038 101.069C97.8707 104.178 100.788 106.963 103.809 105.853C122.247 99.0754 136.142 89.5764 141.935 79.7496C143.733 76.7001 140.732 73.7529 137.312 74.6692L136.946 74.7674C135.907 75.0456 135.041 75.7443 134.446 76.6392V76.6392C132.155 80.0838 128.246 83.881 122.631 87.6577C116.86 91.5402 109.625 95.1729 101.29 98.2551C100.025 98.7231 99.0529 99.766 98.7038 101.069V101.069ZM31.7481 110.94C32.3672 108.629 30.8206 106.308 28.4712 105.858C27.0782 105.591 25.7298 105.296 24.4292 104.973V104.973C24.3565 104.955 24.2804 104.956 24.208 104.975L23.1237 105.266C18.8394 106.414 18.5152 111.767 22.8247 112.817C24.2786 113.171 25.7795 113.493 27.3241 113.783C29.3138 114.156 31.2241 112.895 31.7481 110.94V110.94Z" fill="#332D57"/>
</g>
<circle cx="116.581" cy="10.4933" r="6.20767" fill="#F7931B" stroke="#332D57" stroke-width="8"/>
<circle cx="131.164" cy="107.466" r="4.37472" fill="#332D57"/>
<circle cx="75.0216" cy="80.4887" r="2.91648" transform="rotate(-90 75.0216 80.4887)" fill="#332D57"/>
<circle cx="40.0239" cy="84.8634" r="4.29119" transform="rotate(-90 40.0239 84.8634)" fill="#D2E1FB" stroke="#332D57" stroke-width="6"/>
<circle cx="58.9811" cy="53.5113" r="9.47855" fill="#86B7E5"/>
<path fill-rule="evenodd" clip-rule="evenodd" d="M65.3761 53.5113C65.3761 57.0432 62.513 59.9063 58.9811 59.9063C55.4492 59.9063 52.5861 57.0432 52.5861 53.5113C52.5861 49.9794 55.4492 47.1163 58.9811 47.1163C60.6411 47.1163 62.1535 47.7488 63.2902 48.786C63.4815 48.9606 64.2064 48.6121 64.1394 48.3619V48.3619C64.1093 48.2496 64.176 48.1342 64.2882 48.1041L66.3043 47.5639C67.8143 47.1593 68.4725 45.3882 67.3156 44.3366C65.1144 42.3358 62.1901 41.1163 58.9811 41.1163C52.1355 41.1163 46.5861 46.6657 46.5861 53.5113C46.5861 60.3569 52.1355 65.9063 58.9811 65.9063C65.8267 65.9063 71.3761 60.3569 71.3761 53.5113V53.5113C71.3761 52.3825 70.2582 51.6698 69.1679 51.9619L65.3856 52.9754C65.3804 52.9768 65.3751 52.9737 65.3738 52.9686V52.9686C65.3707 52.9571 65.3527 52.9603 65.3537 52.9721C65.3685 53.1499 65.3761 53.3297 65.3761 53.5113Z" fill="#332D57"/>
</svg>
