<svg width="150" height="150" viewBox="0 0 150 150" fill="none" xmlns="http://www.w3.org/2000/svg">
<circle cx="75" cy="75" r="68.1818" fill="#D3FFFE" fill-opacity="0.3"/>
<mask id="path-2-inside-1_75_384" fill="white">
<path d="M88.5152 6.62707C88.8398 4.98466 87.7718 3.38336 86.1173 3.12738C69.1258 0.498505 51.7465 3.97708 37.0759 12.9433C35.6473 13.8164 35.2779 15.7054 36.2097 17.0964V17.0964C37.1415 18.4873 39.0213 18.8529 40.4531 17.9853C53.7832 9.90748 69.5285 6.75595 84.9408 9.08076C86.5963 9.33047 88.1905 8.26947 88.5152 6.62707V6.62707Z"/>
</mask>
<path d="M88.5152 6.62707C88.8398 4.98466 87.7718 3.38336 86.1173 3.12738C69.1258 0.498505 51.7465 3.97708 37.0759 12.9433C35.6473 13.8164 35.2779 15.7054 36.2097 17.0964V17.0964C37.1415 18.4873 39.0213 18.8529 40.4531 17.9853C53.7832 9.90748 69.5285 6.75595 84.9408 9.08076C86.5963 9.33047 88.1905 8.26947 88.5152 6.62707V6.62707Z" stroke="#332D57" stroke-width="16" mask="url(#path-2-inside-1_75_384)"/>
<mask id="path-3-inside-2_75_384" fill="white">
<path d="M6.42596 53.472C4.77872 52.9548 3.01745 53.8696 2.5694 55.537C-0.27291 66.1143 -0.767259 77.1991 1.13712 88.0106C3.0415 98.822 7.29365 109.071 13.5791 118.04C14.5699 119.454 16.5377 119.712 17.9091 118.663V118.663C19.2805 117.614 19.5356 115.656 18.5502 114.239C12.8706 106.068 9.02508 96.7504 7.29455 86.926C5.56403 77.1016 5.99439 67.0309 8.5403 57.4112C8.98202 55.7422 8.07319 53.9891 6.42596 53.472V53.472Z"/>
</mask>
<path d="M6.42596 53.472C4.77872 52.9548 3.01745 53.8696 2.5694 55.537C-0.27291 66.1143 -0.767259 77.1991 1.13712 88.0106C3.0415 98.822 7.29365 109.071 13.5791 118.04C14.5699 119.454 16.5377 119.712 17.9091 118.663V118.663C19.2805 117.614 19.5356 115.656 18.5502 114.239C12.8706 106.068 9.02508 96.7504 7.29455 86.926C5.56403 77.1016 5.99439 67.0309 8.5403 57.4112C8.98202 55.7422 8.07319 53.9891 6.42596 53.472V53.472Z" stroke="#332D57" stroke-width="16" mask="url(#path-3-inside-2_75_384)"/>
<mask id="path-4-inside-3_75_384" fill="white">
<path d="M106.589 12.8737C107.347 11.3813 106.755 9.55025 105.232 8.8543C103.086 7.87306 100.892 6.99692 98.6602 6.229C97.0771 5.68434 95.3863 6.60347 94.9081 8.2079V8.2079C94.4299 9.81234 95.3456 11.494 96.9266 12.0446C98.8107 12.7008 100.664 13.4413 102.482 14.2638C104.007 14.954 105.83 14.366 106.589 12.8737V12.8737Z"/>
</mask>
<path d="M106.589 12.8737C107.347 11.3813 106.755 9.55025 105.232 8.8543C103.086 7.87306 100.892 6.99692 98.6602 6.229C97.0771 5.68434 95.3863 6.60347 94.9081 8.2079V8.2079C94.4299 9.81234 95.3456 11.494 96.9266 12.0446C98.8107 12.7008 100.664 13.4413 102.482 14.2638C104.007 14.954 105.83 14.366 106.589 12.8737V12.8737Z" stroke="#332D57" stroke-width="16" mask="url(#path-4-inside-3_75_384)"/>
<circle cx="75" cy="75" r="56.0606" fill="#109B95"/>
<circle cx="75" cy="75" r="55.0909" stroke="#332D57" stroke-width="8"/>
<mask id="mask0_75_384" style="mask-type:alpha" maskUnits="userSpaceOnUse" x="21" y="21" width="108" height="108">
<circle cx="75" cy="75" r="53.0303" fill="#0FCDC8"/>
</mask>
<g mask="url(#mask0_75_384)">
<circle cx="62.8788" cy="75" r="53.0303" fill="#0FCDC8"/>
</g>
<mask id="mask1_75_384" style="mask-type:alpha" maskUnits="userSpaceOnUse" x="21" y="21" width="108" height="108">
<circle cx="75" cy="75" r="53.0303" fill="#109B95"/>
</mask>
<g mask="url(#mask1_75_384)">
<path d="M52.6515 56.4394C46.9697 54.5454 33.3333 54.1667 28.0303 41.2879C22.7273 28.4091 13.6364 56.6644 13.6364 83.3333C13.6364 96.2121 51.5151 136.364 57.9545 127.273C73.106 100.379 16.2788 90.9091 34.0909 80.6818C42.3792 79.2403 42.5539 69.7994 40.4856 66.0577C40.2999 65.7218 40.2605 65.3106 40.4799 64.9956C44.1334 59.7508 58.1509 58.2725 52.6515 56.4394Z" fill="#EFC928" stroke="#332D57" stroke-width="8"/>
<path d="M84.0908 45.8333C75.909 36.7424 99.3686 30.4293 112.121 28.4091L134.848 55.303C134.343 70.8333 131.667 102.197 125 103.409C116.667 104.924 114.773 71.2121 108.712 87.5C106.145 98.4686 100.415 105.555 96.0388 108.405C92.6118 110.637 91.402 106.594 91.5059 102.506C91.8153 90.3283 83.33 79.2725 81.0606 77.6515C78.4092 75.7576 82.1969 70.4545 84.0908 67.4242C85.9848 64.3939 92.4242 70.0757 103.409 71.2121C114.394 72.3485 118.939 67.0454 114.773 64.3939C111.07 62.0376 109.76 59.083 110.312 53.9351C110.454 52.6074 110.372 51.0758 109.215 50.4088C104.493 47.6865 93.2328 55.9911 84.0908 45.8333Z" fill="#EFC928" stroke="#332D57" stroke-width="8"/>
</g>
<path fill-rule="evenodd" clip-rule="evenodd" d="M57.0967 37.9944C57.0967 34.9944 54.041 32.9873 51.4568 34.511C42.483 39.8022 35.422 47.9917 31.5613 57.7922C30.57 60.3086 32.5408 62.8789 35.2455 62.8789V62.8789C37.0264 62.8789 38.5852 61.7246 39.2675 60.0796C42.4297 52.4562 47.9421 46.0539 54.9008 41.7765C56.226 40.962 57.0967 39.5499 57.0967 37.9944V37.9944Z" fill="white"/>
<circle cx="30.5816" cy="69.697" r="3.0303" fill="white"/>
<circle cx="123.763" cy="134.091" r="3.78788" fill="#332D57"/>
<circle cx="137.121" cy="121.97" r="6.06061" fill="#EFC928"/>
<circle cx="43.1819" cy="121.212" r="7.36364" fill="#43C58C" stroke="#332D57" stroke-width="8"/>
</svg>
