<svg width="150" height="132" viewBox="0 0 150 132" fill="none" xmlns="http://www.w3.org/2000/svg">
    <circle cx="74.7669" cy="66" r="65.7338" fill="#B341FF" fill-opacity="0.3" />
    <circle cx="74.7669" cy="66" r="52.9693" fill="#8C12DC" stroke="#332D57" stroke-width="8" />
    <mask id="mask0_75_1874" style="mask-type:alpha" maskUnits="userSpaceOnUse" x="23" y="14" width="103" height="104">
        <circle cx="74.7668" cy="66" r="51.1263" fill="#B341FF" />
    </mask>
    <g mask="url(#mask0_75_1874)">
        <circle cx="63.0808" cy="66" r="51.1263" fill="#B341FF" />
    </g>
    <path fill-rule="evenodd" clip-rule="evenodd"
        d="M57.2378 30.5636C57.2378 27.5571 54.1753 25.5466 51.5936 27.0874C43.0967 32.1584 36.4004 39.9334 32.6926 49.2247C31.6889 51.74 33.6622 54.3141 36.3704 54.3141V54.3141C38.1498 54.3141 39.7073 53.1626 40.3987 51.523C43.4038 44.3976 48.5602 38.4016 55.0541 34.3485C56.3714 33.5264 57.2378 32.1164 57.2378 30.5636V30.5636Z"
        fill="white" />
    <circle cx="31.6748" cy="60.8874" r="2.9215" fill="white" />
    <path fill-rule="evenodd" clip-rule="evenodd"
        d="M125.08 24.2826C124.982 20.194 123.829 17.7951 122.414 16.3799C120.999 14.9648 118.6 13.8114 114.511 13.7135C110.366 13.6142 105.002 14.6407 98.6762 17.0782C97.7721 17.4265 96.8557 17.8009 95.9282 18.2009C95.0121 18.596 93.9797 18.6105 93.048 18.2537C89.8881 17.0438 89.2422 12.3924 92.3422 11.0364C107.718 4.31107 121.018 3.67071 128.071 10.7231C141.107 23.759 127.858 58.1429 98.4795 87.5215C69.1009 116.9 34.717 130.149 21.6811 117.113C15.243 110.675 15.2159 99.0296 20.3765 85.3522C21.5831 82.1544 26.3036 82.6398 27.6267 85.7912C27.7517 86.0889 27.8795 86.3855 28.0101 86.6808C28.1555 87.0096 28.1654 87.3827 28.0361 87.7182C25.5987 94.0441 24.5722 99.4079 24.6715 103.553C24.7694 107.642 25.9228 110.041 27.3379 111.456C28.7531 112.871 31.152 114.024 35.2406 114.122C39.3857 114.221 44.7495 113.195 51.0755 110.757C63.7063 105.891 78.7343 95.9531 92.8227 81.8647C106.911 67.7763 116.849 52.7483 121.715 40.1175C124.153 33.7915 125.179 28.4277 125.08 24.2826Z"
        fill="#332D57" />
    <path fill-rule="evenodd" clip-rule="evenodd"
        d="M55.545 94.2535C54.6708 95.6394 53.0293 96.3473 51.4282 95.9988C20.4949 89.2651 -1.26942 74.4676 0.0575245 59.3006C0.898771 49.6851 10.8541 41.8275 26.0894 37.0425C28.8109 36.1877 31.0015 39.4169 29.6588 41.9338C29.1838 42.8242 28.734 43.7309 28.3103 44.653C28.3049 44.6647 28.3101 44.6786 28.3218 44.684C28.3413 44.693 28.3395 44.7212 28.3191 44.7277C27.757 44.9057 27.2038 45.088 26.6599 45.2745C20.2472 47.4736 15.4784 50.135 12.3669 52.8755C9.2978 55.5786 8.20151 58.0041 8.02708 59.9978C7.85265 61.9916 8.5111 64.5706 11.0642 67.7656C13.6526 71.0047 17.8867 74.4538 23.8201 77.733C31.4979 81.9763 41.4542 85.6217 52.9135 88.1347C55.6571 88.7364 57.0436 91.8778 55.545 94.2535V94.2535ZM63.578 92.4706C64.4245 91.1286 65.9763 90.4095 67.5516 90.5985C69.2753 90.8054 71.0214 90.9867 72.7879 91.1413C91.4049 92.7701 108.308 91.0701 120.899 87.2296C120.948 87.2148 120.999 87.2185 121.045 87.2396L121.073 87.2525C121.162 87.2929 121.266 87.2542 121.306 87.1659C121.327 87.1203 121.366 87.0856 121.414 87.0707C122.068 86.8662 122.71 86.6559 123.34 86.4399C129.753 84.2408 134.522 81.5794 137.633 78.8389C140.702 76.1358 141.798 73.7103 141.973 71.7166C142.147 69.7228 141.489 67.1438 138.936 63.9488C136.347 60.7097 132.113 57.2606 126.18 53.9814C124.925 53.288 123.996 52.1273 123.569 50.759C123.303 49.9083 123.014 49.0627 122.703 48.223C121.925 46.1265 124.019 43.9239 126.031 44.8997C141.488 52.3972 150.825 62.3238 149.942 72.4138C148.336 90.7793 113.48 102.732 72.0907 99.1108C70.1676 98.9426 68.2643 98.7437 66.3831 98.5155C63.4977 98.1655 62.0273 94.929 63.578 92.4706V92.4706Z"
        fill="#332D57" />
    <circle cx="20.7191" cy="9.76102" r="5.11263" fill="#F7931B" />
    <circle cx="31.6748" cy="4.6484" r="2.19113" fill="#FECD64" />
    <circle cx="121.511" cy="122.969" r="3.65188" fill="#F7931B" />
    <circle cx="130.275" cy="113.474" r="4.38226" fill="#FECD64" />
    <circle cx="119.32" cy="111.283" r="2.19113" fill="#FECD64" />
    <circle cx="71.8455" cy="76.9556" r="2.9215" transform="rotate(-90 71.8455 76.9556)" fill="#332D57" />
    <circle cx="64.5416" cy="69.6519" r="3.65188" transform="rotate(-90 64.5416 69.6519)" fill="#332D57" />
    <circle cx="62.3505" cy="79.8771" r="1.46075" transform="rotate(-90 62.3505 79.8771)" fill="#332D57" />
</svg>