<svg width="150" height="148" viewBox="0 0 150 148" fill="none" xmlns="http://www.w3.org/2000/svg">
<circle cx="76.2914" cy="75.8457" r="67.3647" fill="#FFCBBA" fill-opacity="0.3"/>
<path fill-rule="evenodd" clip-rule="evenodd" d="M82.3346 143.089C82.3346 145.44 84.3463 147.3 86.6736 146.965C103.933 144.481 119.211 135.862 130.225 123.39C132.489 120.826 130.547 117.013 127.126 117.013V117.013C125.881 117.013 124.705 117.568 123.873 118.494C114.209 129.256 100.943 136.717 85.9725 138.981C83.9192 139.291 82.3346 141.012 82.3346 143.089V143.089Z" fill="#332D57"/>
<circle cx="76.2914" cy="75.8457" r="54.3827" fill="#CD3D0D" stroke="#332D57" stroke-width="8"/>
<mask id="mask0_75_1915" style="mask-type:alpha" maskUnits="userSpaceOnUse" x="23" y="23" width="106" height="106">
<circle cx="76.2915" cy="75.8457" r="52.3947" fill="#F05927"/>
</mask>
<g mask="url(#mask0_75_1915)">
<circle cx="64.3155" cy="75.8457" r="52.3947" fill="#F05927"/>
</g>
<path fill-rule="evenodd" clip-rule="evenodd" d="M58.3276 39.3637C58.3276 36.3616 55.2696 34.3534 52.6863 35.8826C43.8715 41.1006 36.9323 49.1518 33.1225 58.7823C32.1271 61.2984 34.0988 63.8698 36.8046 63.8698V63.8698C38.585 63.8698 40.1434 62.7164 40.8287 61.0732C43.9386 53.6161 49.3321 47.3495 56.1356 43.1468C57.4582 42.3297 58.3276 40.9184 58.3276 39.3637V39.3637Z" fill="white"/>
<circle cx="32.1302" cy="70.6062" r="2.99399" fill="white"/>
<path fill-rule="evenodd" clip-rule="evenodd" d="M128.611 73.0468C128.599 72.8047 128.702 72.5708 128.891 72.4185C134.308 68.0427 137.988 63.7892 140.04 60.0296C142.066 56.3197 142.288 53.5468 141.741 51.5032C141.193 49.4596 139.614 47.1696 136.005 44.9692C132.348 42.7394 127.034 40.8957 120.155 39.8149C118.19 39.5062 116.128 39.2647 113.98 39.0929C113.738 39.0735 113.511 38.9683 113.34 38.797C110.682 36.1387 112.357 30.8912 116.099 31.2482C133.979 32.954 146.746 39.2737 149.468 49.4326C154.358 67.6819 124.982 91.4094 83.8539 102.43C52.6318 110.795 23.6131 109.433 9.30652 100.307C6.93114 98.7921 7.34859 95.4693 9.7886 94.0605L10.4558 93.6753C11.5525 93.0421 12.9138 93.1442 13.995 93.8034V93.8034C17.652 96.0332 22.9656 97.8769 29.8452 98.9577C43.5823 101.116 62.0404 99.9922 81.7833 94.7021C98.4659 90.232 112.866 83.6443 123.457 76.4378C124.019 76.0551 124.681 75.8457 125.361 75.8457H126.588C127.747 75.8457 128.691 74.906 128.644 73.7482C128.635 73.5142 128.624 73.2804 128.611 73.0468ZM7.87993 88.2482C8.21703 88.0535 8.35998 87.6455 8.25923 87.2695V87.2695C7.71165 85.2259 7.9345 82.4529 9.95956 78.743C12.0117 74.9834 15.6916 70.7299 21.1091 66.3541C22.1602 65.5052 23.2654 64.6608 24.4223 63.8232C25.0994 63.333 25.5859 62.6219 25.8097 61.8165C26.7471 58.444 22.9515 55.0342 20.1062 57.0729C5.62318 67.4499 -2.17585 79.2348 0.531825 89.34V89.34C0.91812 90.7817 2.59353 91.3003 3.8861 90.554L7.87993 88.2482Z" fill="#332D57"/>
<circle cx="63.567" cy="101.898" r="10.4789" fill="#FFD136"/>
<path fill-rule="evenodd" clip-rule="evenodd" d="M55.7517 94.6854C54.3119 92.1916 50.8752 91.7024 49.564 94.2661C48.4673 96.4104 47.8486 98.8398 47.8486 101.414C47.8486 110.095 54.886 117.132 63.5671 117.132C72.2481 117.132 79.2855 110.095 79.2855 101.414C79.2855 92.7327 72.2481 85.6953 63.5671 85.6953V85.6953C60.9745 85.6953 59.8431 88.5929 61.1394 90.8382L62.4311 93.0754C62.6619 93.4752 63.1054 93.6953 63.5671 93.6953V93.6953C67.8298 93.6953 71.2855 97.1509 71.2855 101.414C71.2855 105.676 67.8298 109.132 63.5671 109.132C59.3043 109.132 55.8486 105.676 55.8486 101.414C55.8486 100.816 55.9165 100.235 56.0449 99.6766C56.4299 98.0025 56.6106 96.173 55.7517 94.6854V94.6854Z" fill="#332D57"/>
<mask id="path-11-inside-1_75_1915" fill="white">
<path d="M95.9098 71.1845C96.4182 72.7585 98.1121 73.6336 99.6405 73.0011C103.9 71.2381 107.798 68.7029 111.137 65.5238C112.334 64.3832 112.221 62.4799 110.989 61.3771V61.3771C109.756 60.2742 107.871 60.3916 106.656 61.5139C104.048 63.9226 101.051 65.8723 97.7914 67.2798C96.2728 67.9356 95.4015 69.6105 95.9098 71.1845V71.1845Z"/>
</mask>
<path d="M95.9098 71.1845C96.4182 72.7585 98.1121 73.6336 99.6405 73.0011C103.9 71.2381 107.798 68.7029 111.137 65.5238C112.334 64.3832 112.221 62.4799 110.989 61.3771V61.3771C109.756 60.2742 107.871 60.3916 106.656 61.5139C104.048 63.9226 101.051 65.8723 97.7914 67.2798C96.2728 67.9356 95.4015 69.6105 95.9098 71.1845V71.1845Z" stroke="#332D57" stroke-width="16" mask="url(#path-11-inside-1_75_1915)"/>
<circle cx="83.0831" cy="19.7085" r="5.73045" fill="#FFD136" stroke="#332D57" stroke-width="8"/>
<circle cx="138.472" cy="108.031" r="8.23346" fill="#F17940"/>
<circle cx="19.4609" cy="12.2235" r="3.74248" transform="rotate(-180 19.4609 12.2235)" fill="#F96E52"/>
<circle cx="10.479" cy="21.954" r="4.49098" transform="rotate(-180 10.479 21.954)" fill="#FECD64"/>
<circle cx="21.7064" cy="24.1995" r="2.24549" transform="rotate(-180 21.7064 24.1995)" fill="#FECD64"/>
<circle cx="90.5681" cy="73.6002" r="2.24549" fill="#332D57"/>
<circle cx="49.4008" cy="76.5942" r="1.49699" fill="#332D57"/>
<circle cx="50.8978" cy="68.3607" r="2.99399" fill="#332D57"/>
</svg>
